# xmcd CD database file
#
# Track frame offsets:
#	150
#	20917
#	47657
#	61199
#	75770
#	102111
#	123966
#	137349
#	151688
#	168623
#	183192
#	200534
#	223395
#	242724
#	256950
#	271229
#	294030
#
# Disc length: 4220 seconds
#
# Revision: 2
# Processed by: cddbd v1.5.2PL0 Copyright (c) Steve Scherf et al.
# Submitted via: CDex 1.50
#
DISCID=e0107a11
DTITLE=Christiane Franke and Cornelia Kuhnert - 02 - Der letzte Heuler CD03
DYEAR=2015
DGENRE=Hörbuch
TTITLE0=Der letzte Heuler 37
TTITLE1=Der letzte Heuler 38
TTITLE2=Der letzte Heuler 39
TTITLE3=Der letzte Heuler 40
TTITLE4=Der letzte Heuler 41
TTITLE5=Der letzte Heuler 42
TTITLE6=Der letzte Heuler 43
TTITLE7=Der letzte Heuler 44
TTITLE8=Der letzte Heuler 45
TTITLE9=Der letzte Heuler 46
TTITLE10=Der letzte Heuler 47
TTITLE11=Der letzte Heuler 48
TTITLE12=Der letzte Heuler 49
TTITLE13=Der letzte Heuler 50
TTITLE14=Der letzte Heuler 51
TTITLE15=Der letzte Heuler 52
TTITLE16=Der letzte Heuler 53
EXTD=YEAR: 2015
EXTT0=
EXTT1=
EXTT2=
EXTT3=
EXTT4=
EXTT5=
EXTT6=
EXTT7=
EXTT8=
EXTT9=
EXTT10=
EXTT11=
EXTT12=
EXTT13=
EXTT14=
EXTT15=
EXTT16=
PLAYORDER=
